<svg width="1280" height="309" viewBox="0 0 1280 309" fill="none" xmlns="http://www.w3.org/2000/svg">
<g clip-path="url(#clip0_80_29962)">
<path d="M316 110.669C222 111.004 0 150.637 0 150.637V198.631C0 198.631 37.6667 151.64 130.333 143.78C181.425 139.447 237.683 155.041 293.132 170.409C338.254 182.916 382.839 195.274 423.667 196.624C471.7 198.213 529.392 190.623 586.938 183.053C638.414 176.281 689.774 169.524 734 169.366C783.528 169.189 818.423 178.083 849.331 185.961C876.877 192.981 901.255 199.194 930 197.46C954.872 195.96 988.222 189.79 1024.51 183.075C1077.23 173.32 1136.16 162.417 1184.33 163.012C1265.67 164.015 1280 186.925 1280 186.925V115.184C1280 115.184 1063 167.861 986.333 170.035C945.144 171.203 911.556 157.456 876.057 142.927C845.481 130.413 813.488 117.319 774 112.676C726.61 107.104 687.547 115.767 646.42 124.887C613.492 132.189 579.241 139.785 538.333 140.603C491.829 141.533 459.549 133.789 426.854 125.946C394.868 118.272 362.485 110.504 316 110.669Z" fill="#FAE3D9"/>
<path d="M0 308.667H1280V186.925C1280 186.925 1265.67 164.015 1184.33 163.012C1136.16 162.417 1077.23 173.32 1024.51 183.075C988.222 189.79 954.872 195.96 930 197.46C901.255 199.194 876.877 192.981 849.331 185.961C818.423 178.083 783.528 169.189 734 169.366C689.774 169.524 638.414 176.281 586.938 183.053C529.392 190.623 471.7 198.213 423.667 196.624C382.839 195.274 338.254 182.916 293.132 170.409C237.683 155.041 181.425 139.447 130.333 143.78C37.6667 151.64 0 198.631 0 198.631V308.667Z" fill="#BBDED6"/>
<path d="M0 198.631V308.667H1280V186.925M0 198.631V150.637C0 150.637 222 111.004 316 110.669C362.485 110.504 394.868 118.272 426.854 125.946C459.549 133.789 491.829 141.533 538.333 140.603C579.241 139.785 613.492 132.189 646.42 124.887C687.547 115.767 726.61 107.104 774 112.676C813.488 117.319 845.481 130.413 876.057 142.927C911.556 157.456 945.144 171.203 986.333 170.035C1063 167.861 1280 115.184 1280 115.184V186.925M0 198.631C0 198.631 37.6667 151.64 130.333 143.78C181.425 139.447 237.683 155.04 293.132 170.409C338.254 182.916 382.839 195.274 423.667 196.624C471.7 198.213 529.392 190.623 586.938 183.053C638.414 176.281 689.774 169.524 734 169.366C783.528 169.189 818.423 178.083 849.331 185.961C876.877 192.981 901.255 199.194 930 197.46C954.872 195.96 988.222 189.79 1024.51 183.075C1077.23 173.32 1136.16 162.417 1184.33 163.012C1265.67 164.015 1280 186.925 1280 186.925" stroke="#FAE3D9" stroke-width="0.666667"/>
<path d="M1278 192.667V308.667H2V246.822C2 246.822 75.4365 206.874 158.177 209.047C240.918 211.22 339.684 231.927 436.97 222.92C534.256 213.913 516.055 207.543 600.125 198.684C684.195 189.825 1017.15 218.909 1110.19 227.6C1203.23 236.292 1278 192.667 1278 192.667Z" fill="#61C0BF" stroke="#61C0BF" stroke-width="0.666667"/>
</g>
<defs>
<clipPath id="clip0_80_29962">
<rect width="1280" height="308.667" fill="white"/>
</clipPath>
</defs>
</svg>
