<svg width="1280" height="309" viewBox="0 0 1280 309" fill="none" xmlns="http://www.w3.org/2000/svg">
<g clip-path="url(#clip0_48_29731)">
<path d="M316 111.003C222 111.337 0 150.97 0 150.97V198.964C0 198.964 37.6667 151.973 130.333 144.114C181.425 139.78 237.683 155.374 293.132 170.743C338.254 183.249 382.839 195.607 423.667 196.958C471.7 198.546 529.392 190.957 586.938 183.386C638.414 176.614 689.774 169.857 734 169.699C783.528 169.523 818.423 178.416 849.331 186.294C876.877 193.314 901.255 199.527 930 197.794C954.872 196.294 988.222 190.123 1024.51 183.408C1077.23 173.654 1136.16 162.751 1184.33 163.345C1265.67 164.348 1280 187.258 1280 187.258V115.518C1280 115.518 1063 168.194 986.333 170.368C945.144 171.536 911.556 157.789 876.057 143.26C845.481 130.746 813.488 117.652 774 113.009C726.61 107.437 687.547 116.1 646.42 125.22C613.492 132.523 579.241 140.118 538.333 140.936C491.829 141.866 459.549 134.122 426.854 126.279C394.868 118.606 362.485 110.837 316 111.003Z" fill="#FAE3D9"/>
<path d="M0 309H1280V187.258C1280 187.258 1265.67 164.348 1184.33 163.345C1136.16 162.751 1077.23 173.654 1024.51 183.408C988.222 190.123 954.872 196.294 930 197.794C901.255 199.527 876.877 193.314 849.331 186.294C818.423 178.416 783.528 169.523 734 169.699C689.774 169.857 638.414 176.614 586.938 183.386C529.392 190.957 471.7 198.546 423.667 196.958C382.839 195.607 338.254 183.249 293.132 170.743C237.683 155.374 181.425 139.78 130.333 144.114C37.6667 151.973 0 198.964 0 198.964V309Z" fill="#BBDED6"/>
<path d="M0 198.964V309H1280V187.258M0 198.964V150.97C0 150.97 222 111.337 316 111.003C362.485 110.837 394.868 118.606 426.854 126.279C459.549 134.122 491.829 141.866 538.333 140.936C579.241 140.118 613.492 132.523 646.42 125.22C687.547 116.1 726.61 107.437 774 113.009C813.488 117.652 845.481 130.746 876.057 143.26C911.556 157.789 945.144 171.536 986.333 170.368C1063 168.194 1280 115.518 1280 115.518V187.258M0 198.964C0 198.964 37.6667 151.973 130.333 144.114C181.425 139.78 237.683 155.374 293.132 170.743C338.254 183.249 382.839 195.607 423.667 196.958C471.7 198.546 529.392 190.957 586.938 183.386C638.414 176.614 689.774 169.857 734 169.699C783.528 169.523 818.423 178.416 849.331 186.294C876.877 193.314 901.255 199.527 930 197.794C954.872 196.294 988.222 190.123 1024.51 183.408C1077.23 173.654 1136.16 162.751 1184.33 163.345C1265.67 164.348 1280 187.258 1280 187.258" stroke="#FAE3D9" stroke-width="0.666667"/>
</g>
<defs>
<clipPath id="clip0_48_29731">
<rect width="1280" height="308.667" fill="white" transform="translate(0 0.333374)"/>
</clipPath>
</defs>
</svg>
