<svg width="44" height="44" viewBox="0 0 44 44" fill="none" xmlns="http://www.w3.org/2000/svg">
<path d="M25.0219 30.3333L21.0379 23.4933H18.3979V30.3333H16.2139V13.6053H21.6139C22.8779 13.6053 23.9419 13.8213 24.8059 14.2533C25.6859 14.6853 26.3419 15.2693 26.7739 16.0053C27.2059 16.7413 27.4219 17.5813 27.4219 18.5253C27.4219 19.6773 27.0859 20.6933 26.4139 21.5733C25.7579 22.4533 24.7659 23.0373 23.4379 23.3253L27.6379 30.3333H25.0219ZM18.3979 21.7413H21.6139C22.7979 21.7413 23.6859 21.4533 24.2779 20.8773C24.8699 20.2853 25.1659 19.5013 25.1659 18.5253C25.1659 17.5333 24.8699 16.7653 24.2779 16.2213C23.7019 15.6773 22.8139 15.4053 21.6139 15.4053H18.3979V21.7413Z" fill="white"/>
<path d="M22 42.5C33.3218 42.5 42.5 33.3218 42.5 22C42.5 10.6782 33.3218 1.5 22 1.5C10.6782 1.5 1.5 10.6782 1.5 22C1.5 33.3218 10.6782 42.5 22 42.5Z" stroke="white" stroke-width="3"/>
</svg>
