<svg width="1283" height="686" viewBox="0 0 1283 686" fill="none" xmlns="http://www.w3.org/2000/svg">
<path d="M1281.67 685.667L1.66666 684.668V245.263C1.66666 245.263 108.583 111.111 254.136 155.051C399.689 198.992 587.875 19.9003 693.126 36.8775C798.378 53.8547 812.7 191.669 976.572 62.8426C1140.44 -65.9835 1162.76 46.8637 1216.38 44.2007C1270.01 41.5376 1280.67 11.5778 1280.67 11.5778L1281.67 685.667Z" fill="#FAE3D9"/>
<path d="M1.66666 313.267V685H1281V68.3333C1281 68.3333 1227.41 218.244 966.29 159.984C807.08 124.462 757.535 183.359 709.352 240.636C678.509 277.3 648.225 313.3 590.094 323.448C511.891 337.101 449.791 319.126 380.403 299.042C317.633 280.873 248.899 260.978 156.886 261.208C114.553 261.314 60.4203 281.61 1.66666 313.267Z" fill="#BBDED6"/>
<path d="M1 556.359L1 685.667H1281.74V313C1281.74 313 1245.19 554.062 1147.4 556C1099.87 556.942 1072.84 511.26 1043.19 461.163C1011.85 408.192 977.579 350.284 913.069 337.333C832.195 321.097 722.933 413.268 632.015 489.965C581.821 532.308 537.219 569.934 506.069 582C454.12 602.123 350.052 570.338 254.482 541.148C188.944 521.13 127.402 502.333 89.4023 502.333C55.8283 502.333 25.7537 526.017 1 556.359Z" fill="#61C0BF"/>
<path d="M1281.67 685.667L1.66666 684.668V245.263C1.66666 245.263 108.583 111.111 254.136 155.051C399.689 198.992 587.875 19.9003 693.126 36.8775C798.378 53.8547 812.7 191.669 976.572 62.8426C1140.44 -65.9835 1162.76 46.8637 1216.38 44.2007C1270.01 41.5376 1280.67 11.5778 1280.67 11.5778L1281.67 685.667Z" stroke="#61C0BF" stroke-width="0.666667"/>
<path d="M1.66666 313.267V685H1281V68.3333C1281 68.3333 1227.41 218.244 966.29 159.984C807.08 124.462 757.535 183.359 709.352 240.636C678.509 277.3 648.225 313.3 590.094 323.448C511.891 337.101 449.791 319.126 380.403 299.042C317.633 280.873 248.899 260.978 156.886 261.208C114.553 261.314 60.4203 281.61 1.66666 313.267Z" stroke="#61C0BF" stroke-width="0.666667"/>
<path d="M1 556.359L1 685.667H1281.74V313C1281.74 313 1245.19 554.062 1147.4 556C1099.87 556.942 1072.84 511.26 1043.19 461.163C1011.85 408.192 977.579 350.284 913.069 337.333C832.195 321.097 722.933 413.268 632.015 489.965C581.821 532.308 537.219 569.934 506.069 582C454.12 602.123 350.052 570.338 254.482 541.148C188.944 521.13 127.402 502.333 89.4023 502.333C55.8283 502.333 25.7537 526.017 1 556.359Z" stroke="#61C0BF" stroke-width="0.666667"/>
</svg>
