<svg width="1282" height="396" viewBox="0 0 1282 396" fill="none" xmlns="http://www.w3.org/2000/svg">
<path d="M316.662 0.666641C222.565 1.33331 0.333252 80.3333 0.333252 80.3333V176C0.333252 176 38.0392 82.3333 130.802 66.6667C181.947 58.0289 238.264 89.1113 293.771 119.746C338.939 144.675 383.571 169.308 424.441 172C472.524 175.167 530.276 160.039 587.882 144.948C639.412 131.45 690.826 117.981 735.098 117.667C784.677 117.314 819.609 135.042 850.549 150.744C878.123 164.738 902.527 177.122 931.302 173.667C956.2 170.677 989.584 158.377 1025.92 144.992C1078.69 125.549 1137.68 103.815 1185.9 105C1267.32 107 1281.67 152.667 1281.67 152.667V9.66664C1281.67 9.66664 1064.44 114.667 987.694 119C946.462 121.328 912.838 93.9262 877.303 64.966C846.695 40.0219 814.668 13.9216 775.14 4.66664C727.7 -6.44048 688.596 10.8271 647.426 29.0069C614.464 43.5625 580.177 58.703 539.227 60.3333C492.675 62.1867 460.361 46.7508 427.632 31.1168C395.612 15.8216 363.196 0.33696 316.662 0.666641Z" fill="#FAE3D9"/>
<path d="M0.333252 395.333H1281.67V152.667C1281.67 152.667 1267.32 107 1185.9 105C1137.68 103.815 1078.69 125.549 1025.92 144.992C989.584 158.377 956.2 170.677 931.302 173.667C902.527 177.122 878.123 164.738 850.549 150.744C819.609 135.042 784.677 117.314 735.098 117.667C690.826 117.981 639.412 131.45 587.882 144.948C530.276 160.039 472.524 175.167 424.441 172C383.571 169.308 338.939 144.675 293.771 119.746C238.264 89.1113 181.947 58.0289 130.802 66.6667C38.0392 82.3333 0.333252 176 0.333252 176V395.333Z" fill="#BBDED6"/>
<path d="M0.333252 176V395.333H1281.67V152.667M0.333252 176V80.3333C0.333252 80.3333 222.565 1.33331 316.662 0.666641C363.196 0.33696 395.612 15.8216 427.632 31.1168C460.361 46.7508 492.675 62.1867 539.227 60.3333C580.177 58.703 614.464 43.5625 647.426 29.0069C688.596 10.8271 727.7 -6.44048 775.14 4.66664C814.668 13.9216 846.695 40.0219 877.303 64.966C912.838 93.9262 946.462 121.328 987.694 119C1064.44 114.667 1281.67 9.66664 1281.67 9.66664V152.667M0.333252 176C0.333252 176 38.0392 82.3333 130.802 66.6667C181.947 58.0289 238.264 89.1113 293.771 119.746C338.939 144.675 383.571 169.308 424.441 172C472.524 175.167 530.276 160.039 587.882 144.948C639.412 131.45 690.826 117.981 735.098 117.667C784.677 117.314 819.609 135.042 850.549 150.744C878.123 164.738 902.527 177.122 931.302 173.667C956.2 170.677 989.584 158.377 1025.92 144.992C1078.69 125.549 1137.68 103.815 1185.9 105C1267.32 107 1281.67 152.667 1281.67 152.667" stroke="#FAE3D9" stroke-width="0.666667"/>
</svg>
